<svg xmlns="http://www.w3.org/2000/svg" xmlns:xlink="http://www.w3.org/1999/xlink" width="399" height="248" viewBox="0 0 399 248"><g id="Table.svg"><path id="legs" fill="#FFF" d="M35.27199935913086,97.78900146484375L47.231998443603516,97.78900146484375L47.231998443603516,148.88499450683594L35.27199935913086,148.88499450683594L35.27199935913086,97.78900146484375zM355.06500244140625,148.88499450683594L367.0249938964844,148.88499450683594L367.0249938964844,97.78900146484375L355.06500244140625,97.78900146484375L355.06500244140625,148.88499450683594zM11.680000305175781,85.83000183105469L11.680000305175781,97.78900146484375L11.680000305175781,234.9949951171875L23.639999389648438,234.9949951171875L23.639999389648438,97.78900146484375L374.7239990234375,97.78900146484375L374.7239990234375,234.9949951171875L386.6839904785156,234.9949951171875L386.6839904785156,97.78900146484375L386.6839904785156,85.83000183105469L11.680000305175781,85.83000183105469z"/><path fill="#FFF250" stroke="#A5971E" stroke-width="3.36" d="M386.6839904785156,85.83000183105469L11.680000305175781,85.83000183105469L35.06500244140625,11.680000305175781L367.06500244140625,11.680000305175781L386.6839904785156,85.83000183105469z" points="376.684 75.83 1.68 75.83 25.065 1.68 357.065 1.68"/><path id="tableBorder_1_" fill="none" stroke="#A5971E" stroke-linecap="round" stroke-linejoin="round" stroke-miterlimit="10" stroke-width="3.36" d="M35.27199935913086,97.78900146484375L47.231998443603516,97.78900146484375L47.231998443603516,148.88499450683594L35.27199935913086,148.88499450683594L35.27199935913086,97.78900146484375zM355.06500244140625,148.88499450683594L367.0249938964844,148.88499450683594L367.0249938964844,97.78900146484375L355.06500244140625,97.78900146484375L355.06500244140625,148.88499450683594zM11.680000305175781,85.83000183105469L11.680000305175781,97.78900146484375L11.680000305175781,234.9949951171875L23.639999389648438,234.9949951171875L23.639999389648438,97.78900146484375L374.7239990234375,97.78900146484375L374.7239990234375,234.9949951171875L386.6839904785156,234.9949951171875L386.6839904785156,97.78900146484375L386.6839904785156,85.83000183105469L11.680000305175781,85.83000183105469zM367.06500244140625,11.680000305175781L35.06500244140625,11.680000305175781L11.680000305175781,85.83000183105469L386.6839904785156,85.83000183105469L367.06500244140625,11.680000305175781z"/></g></svg>