<svg xmlns="http://www.w3.org/2000/svg" xmlns:xlink="http://www.w3.org/1999/xlink" id="Layer_1" width="52" height="40" x="0" y="0" enable-background="new 0 0 52 40" version="1.1" viewBox="0 0 52 40" xml:space="preserve"><g id="Layer_1_1_"><g><path fill="#DFDCD7" d="M8,39c-3.3,0-6-2.7-6-6V7c0-3.3,2.7-6,6-6h36c3.3,0,6,2.7,6,6v26c0,3.3-2.7,6-6,6H8z"/><path fill="#FFF" d="M44,2H8C5.25,2,3,4.25,3,7v1c0-2.75,2.25-5,5-5h36c2.75,0,5,2.25,5,5V7C49,4.25,46.75,2,44,2z"/><linearGradient id="SVGID_1_" x1="26" x2="26" y1="-564" y2="-531.771" gradientTransform="matrix(1 0 0 -1 0 -530)" gradientUnits="userSpaceOnUse"><stop offset="0" stop-color="#F3F0EB"/><stop offset="1" stop-color="#FAF7F2"/></linearGradient><path fill="url(#SVGID_1_)" d="M44,3H8C5.25,3,3,5.25,3,8v21c0,2.75,2.25,5,5,5h36c2.75,0,5-2.25,5-5V8C49,5.25,46.75,3,44,3z"/><linearGradient id="SVGID_2_" x1="26" x2="26" y1="-564.999" y2="-532.77" gradientTransform="matrix(1 0 0 -1 0 -530)" gradientUnits="userSpaceOnUse"><stop offset="0" stop-color="#F3F0EB"/><stop offset="1" stop-color="#FAF7F2"/></linearGradient><path fill="url(#SVGID_2_)" d="M44,3H8C5.25,3,3,5.25,3,8v21c0,2.75,2.25,5,5,5h36c2.75,0,5-2.25,5-5V8C49,5.25,46.75,3,44,3z"/><path fill="#FFF" d="M8,34h36c2.75,0,5-2.25,5-5v-1c0,2.75-2.25,5-5,5H8c-2.75,0-5-2.25-5-5v1C3,31.75,5.25,34,8,34z"/></g></g><g><polygon fill="#999" points="37.5 8.5 17.5 8.5 11.417 16.938 17.5 25.5 37.5 25.5"/><g><path fill="#FFF" d="M25.117,17.011l-2.818-4.006h3.094l1.294,2.327l1.271-2.327h2.928l-2.748,4.03l3.06,4.533H28.02 l-1.463-2.555l-1.512,2.555h-3.022L25.117,17.011z"/></g></g></svg>