<svg xmlns="http://www.w3.org/2000/svg" xmlns:xlink="http://www.w3.org/1999/xlink" id="Layer_1" width="52" height="40" x="0" y="0" enable-background="new 0 0 52 40" version="1.1" viewBox="0 0 52 40" xml:space="preserve"><g id="Layer_2"><g><path fill="#DFDCD7" d="M8,39c-3.3,0-6-2.7-6-6V12c0-3.3,2.7-6,6-6h36c3.3,0,6,2.7,6,6v21c0,3.3-2.7,6-6,6H8z"/><path fill="#DFDCD7" d="M8,38c-2.757,0-5-2.243-5-5V12c0-2.757,2.243-5,5-5h36c2.757,0,5,2.243,5,5v21c0,2.757-2.243,5-5,5H8z"/><path fill="#BCBBBB" d="M44,7H8c-2.75,0-5,2.25-5,5v1c0-2.75,2.25-5,5-5h36c2.75,0,5,2.25,5,5v-1C49,9.25,46.75,7,44,7z"/></g></g></svg>