<svg xmlns="http://www.w3.org/2000/svg" xmlns:xlink="http://www.w3.org/1999/xlink" id="Layer_1" width="708" height="132" x="0" y="0" enable-background="new 0 0 708 132" version="1.1" viewBox="0 0 708 132" xml:space="preserve"><pattern id="SVGID_3_" width="71.999" height="72" x="-41.5" y="372.5" overflow="visible" patternUnits="userSpaceOnUse" viewBox="28.856 -76.621 71.999 72"><g><polygon fill="none" points="28.856 -4.621 100.855 -4.621 100.855 -76.621 28.856 -76.621"/><g><polygon fill="none" points="28.856 -76.621 100.855 -76.621 100.855 -4.621 28.856 -4.621"/><g><polygon fill="none" points="28.856 -4.621 28.856 -76.621 100.855 -76.621 100.855 -4.621"/><line x1="5.106" x2="11.106" y1="-10.621" y2="-4.621" fill="none"/><line x1="5.106" x2="11.106" y1="-4.621" y2="-10.621" fill="none"/><line x1="21.372" x2="39.371" y1="-66.105" y2="-84.105" fill="none" stroke="#231F20" stroke-linejoin="round" stroke-width=".3"/><line x1="21.372" x2="45.371" y1="-60.105" y2="-84.105" fill="none" stroke="#231F20" stroke-linejoin="round" stroke-width=".3"/><line x1="21.372" x2="51.371" y1="-54.105" y2="-84.105" fill="none" stroke="#231F20" stroke-linejoin="round" stroke-width=".3"/><line x1="21.372" x2="57.371" y1="-48.105" y2="-84.105" fill="none" stroke="#231F20" stroke-linejoin="round" stroke-width=".3"/><line x1="21.372" x2="63.371" y1="-42.105" y2="-84.105" fill="none" stroke="#231F20" stroke-linejoin="round" stroke-width=".3"/><line x1="21.372" x2="69.371" y1="-36.105" y2="-84.105" fill="none" stroke="#231F20" stroke-linejoin="round" stroke-width=".3"/><line x1="21.372" x2="75.371" y1="-30.105" y2="-84.105" fill="none" stroke="#231F20" stroke-linejoin="round" stroke-width=".3"/><line x1="21.372" x2="81.371" y1="-24.105" y2="-84.105" fill="none" stroke="#231F20" stroke-linejoin="round" stroke-width=".3"/><line x1="21.372" x2="87.371" y1="-18.105" y2="-84.105" fill="none" stroke="#231F20" stroke-linejoin="round" stroke-width=".3"/><line x1="21.372" x2="93.371" y1="-12.105" y2="-84.105" fill="none" stroke="#231F20" stroke-linejoin="round" stroke-width=".3"/><line x1="21.372" x2="99.371" y1="-6.105" y2="-84.105" fill="none" stroke="#231F20" stroke-linejoin="round" stroke-width=".3"/><line x1="21.372" x2="105.371" y1="-.105" y2="-84.105" fill="none" stroke="#231F20" stroke-linejoin="round" stroke-width=".3"/><line x1="27.372" x2="105.371" y1="-.105" y2="-78.105" fill="none" stroke="#231F20" stroke-linejoin="round" stroke-width=".3"/><line x1="33.371" x2="105.371" y1="-.105" y2="-72.105" fill="none" stroke="#231F20" stroke-linejoin="round" stroke-width=".3"/><line x1="39.371" x2="105.371" y1="-.105" y2="-66.105" fill="none" stroke="#231F20" stroke-linejoin="round" stroke-width=".3"/><line x1="45.371" x2="105.371" y1="-.105" y2="-60.105" fill="none" stroke="#231F20" stroke-linejoin="round" stroke-width=".3"/><line x1="51.371" x2="105.371" y1="-.105" y2="-54.105" fill="none" stroke="#231F20" stroke-linejoin="round" stroke-width=".3"/><line x1="57.371" x2="105.371" y1="-.105" y2="-48.105" fill="none" stroke="#231F20" stroke-linejoin="round" stroke-width=".3"/><line x1="63.371" x2="105.371" y1="-.105" y2="-42.105" fill="none" stroke="#231F20" stroke-linejoin="round" stroke-width=".3"/><line x1="69.371" x2="105.371" y1="-.105" y2="-36.105" fill="none" stroke="#231F20" stroke-linejoin="round" stroke-width=".3"/><line x1="75.371" x2="105.371" y1="-.105" y2="-30.105" fill="none" stroke="#231F20" stroke-linejoin="round" stroke-width=".3"/><line x1="81.371" x2="105.371" y1="-.105" y2="-24.105" fill="none" stroke="#231F20" stroke-linejoin="round" stroke-width=".3"/><line x1="87.371" x2="105.371" y1="-.105" y2="-18.105" fill="none" stroke="#231F20" stroke-linejoin="round" stroke-width=".3"/><line x1="93.371" x2="105.371" y1="-.105" y2="-12.105" fill="none" stroke="#231F20" stroke-linejoin="round" stroke-width=".3"/><line x1=".106" x2="10.106" y1="-63.121" y2="-73.121" fill="none" stroke="#231F20" stroke-linejoin="bevel" stroke-width=".3"/></g></g></g></pattern><rect width="708" height=".999" fill="#B9C0C6"/><rect width="709" height="129.986" y="2" fill="#E9ECF0"/><linearGradient id="SVGID_1_" x1="353" x2="353" y1="600.499" y2="543.376" gradientTransform="matrix(1 0 0 1 0 -484)" gradientUnits="userSpaceOnUse"><stop offset="0" stop-color="#FFF"/><stop offset=".09" stop-color="#FFF" stop-opacity=".91"/><stop offset="1" stop-color="#FFF" stop-opacity="0"/></linearGradient><path fill="url(#SVGID_1_)" d="M45,116c-12.131,0-22-9.869-22-22V38	c0-12.131,9.869-22,22-22h616c12.131,0,22,9.869,22,22v56c0,12.131-9.869,22-22,22H45z" enable-background="new" opacity=".75"/><rect width="1" height="125" x="707" y="2" fill="#FFF"/><g><rect width="707" height=".999" y="1" fill="#FFF"/></g><path fill="#C9CFD3" d="M661,13H45c-11.58,0-21,9.421-21,21v4c0-11.579,9.42-21,21-21h616c11.58,0,21,9.421,21,21v-4	C682,22.421,672.58,13,661,13z"/><path fill="#D9DEE2" d="M661,17H45c-11.58,0-21,9.421-21,21v56c0,11.579,9.42,21,21,21h616c11.58,0,21-9.421,21-21V38	C682,26.421,672.58,17,661,17z"/><pattern id="SVGID_2_" patternTransform="matrix(1 0 0 1 550.8647 16786.7109)" xlink:href="#SVGID_3_"/><path fill="url(#SVGID_2_)" d="M661,17H45c-11.58,0-21,9.421-21,21v56	c0,11.579,9.42,21,21,21h616c11.58,0,21-9.421,21-21V38C682,26.421,672.58,17,661,17z" enable-background="new" opacity=".25"/><rect width="709" height="1" y="127" fill="#B3B3B3"/></svg>