<svg xmlns="http://www.w3.org/2000/svg" xmlns:xlink="http://www.w3.org/1999/xlink" id="Layer_1" width="51" height="57" x="0" y="0" enable-background="new 0 0 51 57" version="1.1" viewBox="0 0 51 57" xml:space="preserve"><g><linearGradient id="SVGID_1_" x1="25.556" x2="25.556" y1="-550.415" y2="-517.582" gradientTransform="matrix(1 0 0 -1 0 -496)" gradientUnits="userSpaceOnUse"><stop offset="0" stop-color="#FFF"/><stop offset=".09" stop-color="#FFF" stop-opacity=".91"/><stop offset="1" stop-color="#FFF" stop-opacity="0"/></linearGradient><path fill="url(#SVGID_1_)" d="M10.556,54.5c-4.411,0-8-3.589-8-8v-30 c0-4.411,3.589-8,8-8h30c4.409,0,8,3.589,8,8v30c0,4.411-3.591,8-8,8H10.556z" enable-background="new" opacity=".75"/><linearGradient id="SVGID_2_" x1="25.556" x2="25.556" y1="-550.415" y2="-517.582" gradientTransform="matrix(1 0 0 -1 0 -496)" gradientUnits="userSpaceOnUse"><stop offset="0" stop-color="#FFF"/><stop offset=".09" stop-color="#FFF" stop-opacity=".91"/><stop offset="1" stop-color="#FFF" stop-opacity="0"/></linearGradient><path fill="url(#SVGID_2_)" d="M10.556,54.5c-4.411,0-8-3.589-8-8v-30 c0-4.411,3.589-8,8-8h30c4.409,0,8,3.589,8,8v30c0,4.411-3.591,8-8,8H10.556z" enable-background="new" opacity=".75"/><path fill="#CCB750" d="M48.057,46.5c0,4.125-3.375,7.5-7.5,7.5h-30c-4.125,0-7.5-3.375-7.5-7.5v-30c0-4.125,3.375-7.5,7.5-7.5h30 c4.125,0,7.5,3.375,7.5,7.5V46.5z"/><path fill="#FFE75A" d="M40.557,9.5h-30c-3.86,0-7,3.14-7,7v30c0,3.859,3.14,7,7,7h30c3.858,0,7-3.141,7-7v-30 C47.557,12.64,44.415,9.5,40.557,9.5z"/><path fill-opacity=".1" d="M40.598,9.5h-30c-3.86,0-7,3.14-7,7v30c0,3.859,3.14,7,7,7h30c3.86,0,7-3.141,7-7v-30 C47.598,12.64,44.458,9.5,40.598,9.5z M46.098,46.5c0,3.032-2.467,5.5-5.5,5.5h-30c-3.033,0-5.5-2.468-5.5-5.5v-30 c0-3.033,2.467-5.5,5.5-5.5h30c3.033,0,5.5,2.467,5.5,5.5V46.5z"/><linearGradient id="SVGID_3_" x1="25.549" x2="25.549" y1="-537.457" y2="-516.95" gradientTransform="matrix(1 0 0 -1 0 -496)" gradientUnits="userSpaceOnUse"><stop offset="0" stop-color="#FFF"/><stop offset=".09" stop-color="#FFF" stop-opacity=".91"/><stop offset="1" stop-color="#FFF" stop-opacity="0"/></linearGradient><path fill="url(#SVGID_3_)" d="M21.631,41.491c-2.667-0.002-5.178-1.043-7.067-2.937c-1.89-1.894-2.931-4.402-2.929-7.068 c0.002-5.689,4.583-10.497,10.001-10.497l14.475,0.007l-0.002,5.589l3.354,0.001l-0.005,9.324l-3.354-0.002l-0.002,5.588 L21.631,41.491z"/><path fill="#C9BF8B" d="M21.631,40.991c-5.239-0.002-9.499-4.267-9.497-9.505c0.002-5.239,4.266-10,9.505-9.997l13.97,0.006 l-0.002,5.589l3.353,0.001l-0.002,8.325l-3.354-0.002l-0.002,5.588L21.631,40.991z"/><path fill="#FFF" d="M21.631,40.491c-2.4-0.002-4.659-0.939-6.36-2.644c-1.701-1.701-2.637-3.963-2.636-6.361 c0.002-4.96,4.041-8.497,9.001-8.497l13.473,0.006l-0.002,5.589l3.354,0.002l-0.004,6.324l-3.354-0.004l-0.004,5.59L21.631,40.491z"/></g></svg>